PathFileType	4	(X/Y/Z)	..\data\2015043\dynamic\2015043_C4_04.trc
DataRate	CameraRate	NumFrames	NumMarkers	Units	OrigDataRate	OrigDataStartFrame	OrigNumFrames
100.000000	100.000000	4	52	mm	100.000000	203	232
Frame#	Time	L_IAS			L_IPS			R_IPS			R_IAS			L_FTC			L_FLE			L_FME			L_FAX			L_TTC			L_FAL			L_TAM			L_FCC			L_FM1			L_FM2			L_FM5			R_FTC			R_FLE			R_FME			R_FAX			R_TTC			R_FAL			R_TAM			R_FCC			R_FM1			R_FM2			R_FM5			CV7			TV10			SXS			SJN			L_SIA			L_SRS			L_SAA			L_SAE			L_HLE			L_HME			L_UOA			L_RSP			L_UHE			L_HM2			L_HM5			R_SIA			R_SRS			R_SAA			R_SAE			R_HLE			R_HME			R_UOA			R_RSP			R_UHE			R_HM2			R_HM5			
		X1	Y1	Z1	X2	Y2	Z2	X3	Y3	Z3	X4	Y4	Z4	X5	Y5	Z5	X6	Y6	Z6	X7	Y7	Z7	X8	Y8	Z8	X9	Y9	Z9	X10	Y10	Z10	X11	Y11	Z11	X12	Y12	Z12	X13	Y13	Z13	X14	Y14	Z14	X15	Y15	Z15	X16	Y16	Z16	X17	Y17	Z17	X18	Y18	Z18	X19	Y19	Z19	X20	Y20	Z20	X21	Y21	Z21	X22	Y22	Z22	X23	Y23	Z23	X24	Y24	Z24	X25	Y25	Z25	X26	Y26	Z26	X27	Y27	Z27	X28	Y28	Z28	X29	Y29	Z29	X30	Y30	Z30	X31	Y31	Z31	X32	Y32	Z32	X33	Y33	Z33	X34	Y34	Z34	X35	Y35	Z35	X36	Y36	Z36	X37	Y37	Z37	X38	Y38	Z38	X39	Y39	Z39	X40	Y40	Z40	X41	Y41	Z41	X42	Y42	Z42	X43	Y43	Z43	X44	Y44	Z44	X45	Y45	Z45	X46	Y46	Z46	X47	Y47	Z47	X48	Y48	Z48	X49	Y49	Z49	X50	Y50	Z50	X51	Y51	Z51	X52	Y52	Z52	

204	2.03	343.1816101074219	996.9253540039065	120.8344726562501	155.8072814941406	1014.420166015625	175.4526824951172	147.5371856689453	1018.35302734375	272.9884643554688	315.3623657226562	1007.648559570313	360.8596191406251	258.0475769042969	901.306091308594	59.87673950195317	277.1542358398438	480.6355895996095	106.2018814086915	270.5531921386719	476.9474182128907	223.3532104492188	257.8817443847657	409.9923706054689	103.4418945312501	311.4472656250001	396.4944152832032	163.8166198730469	177.8654479980469	76.05291748046876	168.3568115234376	205.6853332519532	88.01367950439455	259.7305603027344	125.0567245483398	26.66351318359376	210.4709930419923	328.7838439941406	16.08727073669434	246.1573791503907	334.2338562011719	31.47033119201661	184.2686767578126	282.0144653320313	17.17192077636719	129.8592987060547	215.1298522949219	913.3931274414065	406.457000732422	361.4504699707031	506.9652709960939	423.2404785156252	398.8052368164063	494.3850097656251	302.5009765625001	335.1828918457031	450.2725830078126	427.9577636718752	408.9654235839844	415.8519287109376	386.1201477050783	160.8990936279297	154.3452453613282	367.1444396972657	220.6572875976563	149.116928100586	292.8311767578126	112.0047378540039	123.1555404663086	306.3526000976563	296.5807189941406	43.6458854675293	338.9215698242189	282.7704772949219	55.90505981445314	388.9743652343752	219.5883178710938	63.5614700317383	423.6192321777345	203.754379272461	1516.2490234375	196.1107177734376	141.2266540527344	1287.669921875	204.0191040039063	371.3453369140626	1288.58154296875	231.7593536376954	319.3252563476563	1441.485717773438	219.256317138672	129.1976165771485	1308.697265625	103.4692306518555	157.1887664794922	1434.66455078125	103.3459854125977	223.3170013427735	1438.127563476563	21.5563888549805	266.5523376464844	1441.033203125	5.764875411987338	311.6004943847657	1111.68115234375	-73.38750457763669	266.7871398925782	1087.269653320313	0.4512052237987846	274.5924377441407	1068.192993164063	-58.12377548217771	484.0733337402345	915.6951904296877	13.1673431396485	462.3736877441407	892.6838989257815	-55.89348602294918	547.1232910156251	847.8696289062502	20.44240570068366	479.0513305664064	823.226013183594	-52.58409500122066	103.6150512695312	1324.643920898438	284.0237121582032	132.0652923583984	1445.231811523438	278.9399719238282	158.5419616699218	1454.830810546875	379.3284301757813	186.5752410888672	1453.219604492188	418.3960571289064	163.4144592285156	1122.135864257813	484.4407043457032	146.7963714599609	1111.284545898438	413.4105834960939	138.8738708496093	1088.213256835938	447.9829101562501	329.2340393066406	900.374938964844	470.4472656250002	256.203857421875	880.1016235351565	503.453582763672	369.8269653320312	821.4756469726565	478.4365844726564	270.987548828125	807.8088378906252	509.6354370117189	
205	2.04	349.5488281250001	996.4263916015627	120.7979278564454	162.0918426513672	1014.234985351563	175.5867156982422	153.8174896240234	1018.095153808594	273.1192626953126	321.767333984375	1007.385131835938	360.738983154297	263.7357482910157	900.973327636719	59.85938262939458	278.5439147949219	480.3433227539064	105.799186706543	271.8495178222657	476.5964965820314	222.9761810302735	258.8751525878907	409.8428649902345	103.0479049682618	312.3401794433594	396.0789184570314	163.3481445312501	177.9177703857422	76.09105682373048	168.3387908935547	205.8299102783203	88.11898803710939	259.6903991699219	125.0794219970703	26.7038974761963	210.5798797607423	328.8203735351562	16.1484432220459	246.1296997070313	334.2405700683594	31.45927047729493	184.1994018554688	281.9801940917969	17.11608695983887	129.7715148925782	221.9239196777344	913.0557861328127	406.4238891601564	371.7084655761719	507.018035888672	421.4079589843752	408.8894042968751	495.4008789062501	300.4850463867189	347.2933044433594	449.0914916992189	426.3529663085939	421.6818542480469	417.2340698242189	383.8546447753907	184.4609680175781	145.8092498779297	367.7924194335938	243.6753845214844	142.9753570556641	292.9858398437501	136.2337188720703	112.7164688110352	307.5866088867188	324.6270751953125	41.36994552612305	339.4148864746095	310.4541320800781	53.18872451782228	389.4803771972658	247.2861480712891	58.38843917846681	424.3894348144533	211.2109680175782	1515.871948242188	195.1271209716798	147.9235534667969	1287.364135742188	203.5691986083985	377.7598266601563	1288.046630859375	231.5399169921876	326.1227416992188	1441.100219726563	219.033905029297	136.1808471679688	1308.352661132813	102.8461074829102	164.3409118652344	1434.35498046875	102.7016296386719	230.5537872314454	1437.724975585938	21.12704086303714	273.8428649902344	1440.682861328125	5.489394664764439	320.4216003417969	1111.792602539063	-74.34936523437497	275.4337158203126	1086.9013671875	-0.7082743644714019	283.7917480468751	1067.723266601563	-59.31909561157224	495.3853454589845	918.7271728515627	13.83486270904547	474.049285888672	894.7639770507815	-55.00861358642574	559.6284790039064	852.244323730469	21.44947814941413	492.0607910156251	825.6130981445315	-51.16104888916011	110.1819839477539	1324.390747070313	283.4054870605469	138.7496337890625	1444.939575195313	278.3302307128907	164.996109008789	1454.603881835938	378.7441101074219	192.8930206298828	1452.9716796875	417.8768005371095	168.8822326660156	1121.9833984375	483.733856201172	152.3994903564453	1111.166748046875	412.5613403320314	144.3738098144531	1088.130737304688	447.2295227050782	333.5499267578125	899.3801879882815	470.3341369628908	260.2982482910156	879.511413574219	503.1328735351564	373.6747436523438	820.269958496094	478.4770507812502	274.5698852539062	807.193054199219	509.4855957031252	
206	2.05	355.9171447753907	995.8693847656252	120.7849884033204	168.4040985107422	1013.97705078125	175.7290191650391	160.1358032226562	1017.747375488281	273.2552490234376	328.1878967285156	1007.014526367188	360.6502685546876	269.4691162109376	900.5952148437502	59.84104919433599	279.9688720703126	480.0432128906251	105.4012832641602	273.1351013183594	476.2362365722657	222.6145477294923	259.8896484375001	409.6954956054689	102.6570739746094	313.2289123535157	395.6413879394532	162.8952331542969	177.9725036621094	76.14038085937501	168.3416595458985	205.9690704345703	88.22116851806642	259.6698608398438	125.1004943847656	26.75466918945313	210.6938018798829	328.8442077636719	16.20623207092286	246.099334716797	334.2383117675782	31.44845199584962	184.1293640136719	281.9429626464844	17.05866241455078	129.6914672851563	228.6919708251953	912.6094360351565	406.3666992187501	381.6316528320312	506.8972473144532	419.4920654296877	418.6635742187501	496.2346801757814	298.3831787109376	359.1473693847656	447.8023376464845	424.661834716797	434.0616760253907	418.5084533691407	381.5098266601564	208.4017486572266	137.4825286865235	368.3314819335938	267.0384216308594	136.9739227294922	293.0320434570314	160.9914245605469	102.4761199951172	308.6896972656251	352.76171875	39.34947586059571	339.776092529297	338.3098449707031	50.76071548461915	389.8644409179689	275.2778015136719	53.57067871093751	425.0452880859377	218.7000579833985	1515.421752929688	194.2466735839845	154.6479949951172	1286.99560546875	203.1985321044923	384.2576293945314	1287.447265625	231.4121856689454	332.9646911621094	1440.633666992188	218.8926391601563	143.1826782226563	1307.956420898438	102.3132476806641	171.5513763427735	1433.994995117188	102.1445007324219	237.8153228759766	1437.258666992188	20.78165435791019	281.1576843261719	1440.256591796875	5.290694713592565	329.1309509277344	1111.80859375	-75.20403289794919	283.9492797851563	1086.46484375	-1.77456402778622	292.8526611328126	1067.19287109375	-60.40657424926756	506.3730468750001	921.580993652344	14.63246917724616	485.4565429687501	896.726989746094	-54.01851272583004	571.7393188476564	856.4144287109377	22.60619544982918	504.7449951171876	827.8982543945315	-49.66446304321284	116.789176940918	1324.078857421875	282.8756408691407	145.4889068603516	1444.583251953125	277.8138122558594	171.5161895751953	1454.310302734375	378.2536010742188	199.2799835205078	1452.649536132813	417.4512329101564	174.36669921875	1121.75390625	483.0662536621095	158.0260314941406	1110.976440429688	411.7391662597657	149.8619689941406	1087.98681640625	446.4740295410157	337.8617858886719	898.304138183594	470.2885131835939	264.3712768554688	878.837829589844	502.8344116210939	377.4999084472656	818.9797363281252	478.5852966308595	278.1226806640625	806.4871826171877	509.3357849121095	
207	2.06	362.2845458984376	995.2539672851565	120.7862777709962	174.7467346191406	1013.638427734375	175.8786315917969	166.5020599365234	1017.302551269531	273.3966369628907	334.6324462890625	1006.534240722656	360.584930419922	275.2498474121094	900.1695556640627	59.81582260131841	281.4517517089844	479.7294311523439	105.0036697387696	274.4412231445313	475.8609619140626	222.2652282714845	260.9430847167969	409.5440063476564	102.2680969238282	314.1372985839844	395.1721191406251	162.4531402587891	178.0311889648438	76.20034790039064	168.3647460937501	206.1040649414063	88.31878662109376	259.6706542968751	125.1173858642578	26.82100868225098	210.8095092773438	328.8519592285156	16.26099586486817	246.0626983642579	334.2266235351563	31.43682289123536	184.0564575195313	281.9024658203126	16.99702072143555	129.6170654296876	235.4500427246094	912.0537719726565	406.2854003906252	391.2099914550782	506.5892639160157	417.5210876464845	428.0825805664063	496.8565673828126	296.2154541015626	370.7253723144531	446.4031372070314	422.9092712402345	446.0843505859376	419.6677551269532	379.1125488281251	232.70947265625	129.437973022461	368.7498168945314	290.7183837890625	131.1901550292969	292.9519042968751	186.2610931396484	92.52113342285158	309.6428222656251	380.9686584472656	37.62832260131837	339.9212036132814	366.321044921875	48.65477752685548	390.0396728515627	303.5412902832031	49.12265014648439	425.5204162597658	226.1928405761719	1514.902709960938	193.5011291503907	161.3993225097656	1286.564453125	202.907928466797	390.8464965820314	1286.785400390625	231.3724365234376	339.8533630371094	1440.085815429688	218.8310852050782	150.2075653076172	1307.51171875	101.8651809692383	178.8088836669922	1433.583618164063	101.6812438964844	245.0987548828126	1436.734008789063	20.52187919616702	288.4938964843751	1439.759765625	5.169596195220984	337.7350158691407	1111.728515625	-75.94020080566403	292.3420104980469	1085.962036132813	-2.732026100158656	301.7753295898438	1066.603637695313	-61.37476348876951	517.0323486328126	924.2318115234377	15.55855083465583	496.5898742675782	898.5608520507815	-52.92983245849604	583.4446411132814	860.336608886719	23.91391563415535	517.0867919921876	830.0654296875002	-48.10806274414058	123.4400482177734	1323.70654296875	282.4354553222657	152.2846527099609	1444.161376953125	277.3970031738282	178.1097869873047	1453.946166992188	377.8606262207032	205.7460174560547	1452.2490234375	417.1227416992189	179.8658142089843	1121.44384765625	482.4417114257814	163.6761932373047	1110.712158203125	410.9506225585939	155.3403167724609	1087.776977539063	445.7231445312501	342.1766357421875	897.1489868164065	470.305633544922	268.4342041015625	878.0820922851565	502.5617065429689	381.3124694824219	817.6070556640627	478.7513122558595	281.665283203125	805.6896972656252	509.1841125488283	
